<?xml version="1.0" standalone="no"?>
<!DOCTYPE svg PUBLIC "-//W3C//DTD SVG 20010904//EN"
 "http://www.w3.org/TR/2001/REC-SVG-20010904/DTD/svg10.dtd">
<svg version="1.0" xmlns="http://www.w3.org/2000/svg"
 width="700.000000pt" height="700.000000pt" viewBox="0 0 700.000000 700.000000"
 preserveAspectRatio="xMidYMid meet">
<metadata>
Created by potrace 1.14, written by Peter Selinger 2001-2017
</metadata>
<g transform="translate(0.000000,700.000000) scale(0.100000,-0.100000)"
fill="#000000" stroke="none">
<path d="M3250 6993 c-197 -18 -275 -29 -405 -54 -55 -11 -111 -22 -125 -25
-211 -41 -545 -160 -783 -279 -197 -100 -505 -295 -603 -383 -11 -9 -58 -50
-105 -89 -131 -110 -379 -362 -379 -384 0 -7 106 -196 139 -249 5 -8 49 -84
98 -169 48 -85 102 -178 118 -206 27 -47 78 -137 126 -220 9 -16 144 -250 299
-520 155 -269 290 -505 300 -523 l18 -33 31 98 c17 55 38 117 48 138 9 22 17
42 18 45 3 17 67 137 107 203 188 308 495 558 813 662 80 26 236 59 335 71 30
4 786 9 1680 11 893 2 1626 6 1628 8 2 2 -13 34 -33 72 -469 860 -1237 1464
-2185 1717 -102 27 -104 27 -255 56 -114 21 -172 30 -308 46 -43 5 -533 11
-577 7z"/>
<path d="M503 5308 c-71 -119 -155 -281 -202 -388 -18 -41 -37 -84 -42 -95
-59 -133 -161 -464 -184 -598 -4 -18 -10 -50 -15 -72 -13 -61 -39 -240 -47
-335 -15 -164 -8 -601 12 -721 2 -13 6 -46 10 -74 22 -181 110 -544 169 -695
8 -19 24 -62 37 -95 105 -282 304 -636 498 -885 489 -629 1155 -1061 1926
-1250 138 -33 164 -35 172 -14 4 11 27 53 51 94 319 538 843 1425 872 1475 9
17 55 94 102 173 47 78 81 142 74 142 -6 0 -27 -4 -46 -10 -37 -10 -56 -13
-185 -35 -80 -14 -364 -14 -450 0 -417 67 -772 284 -1026 625 -39 52 -190 302
-336 555 -306 529 -295 511 -340 590 -19 33 -38 67 -43 75 -8 12 -322 558
-403 700 -10 19 -54 96 -97 170 -43 74 -88 153 -100 175 -12 22 -44 77 -71
123 -27 45 -49 84 -49 86 0 2 -27 49 -59 104 -33 55 -83 141 -111 191 -28 50
-52 91 -53 91 -2 0 -30 -46 -64 -102z"/>
<path d="M3447 4664 c-1 -1 -33 -4 -72 -8 -469 -44 -885 -405 -1004 -871 -35
-139 -45 -339 -22 -460 6 -33 13 -71 16 -85 10 -54 59 -188 92 -255 61 -120
124 -207 223 -305 161 -162 343 -263 561 -314 520 -120 1061 138 1298 619 88
178 119 314 119 515 0 565 -400 1044 -958 1146 -50 9 -246 23 -253 18z"/>
<path d="M4590 4660 c0 -3 24 -30 53 -60 463 -479 575 -1220 274 -1810 -29
-58 -123 -222 -207 -365 -84 -143 -161 -273 -170 -290 -10 -16 -120 -203 -245
-415 -126 -212 -249 -421 -275 -465 -25 -44 -57 -98 -71 -120 -39 -65 -42 -70
-172 -290 -68 -116 -188 -317 -265 -448 -78 -132 -142 -241 -142 -244 0 -4
-11 -21 -25 -39 -14 -18 -25 -36 -25 -39 0 -4 -9 -20 -20 -35 -16 -23 -17 -29
-6 -33 17 -7 492 -1 521 6 11 3 52 8 90 11 39 4 81 8 95 11 14 2 68 11 120 20
456 76 935 271 1334 542 268 183 594 483 767 708 13 17 28 35 34 41 15 16 170
240 214 309 70 110 171 301 221 415 18 41 38 89 45 105 33 73 104 271 120 335
37 142 84 336 89 366 40 253 48 351 50 579 1 214 -8 423 -19 458 -2 6 -6 35
-9 62 -5 43 -19 126 -41 240 -11 57 -66 260 -95 355 l-30 95 -1105 0 c-608 0
-1105 -2 -1105 -5z"/>
</g>
</svg>
