<svg width="1280" height="32" viewBox="0 0 1280 32" fill="none" xmlns="http://www.w3.org/2000/svg">
<g opacity="0.6">
<path d="M21.3558 14.1385C20.9581 14.5388 20.6535 15.022 20.4638 15.5536C20.274 16.0852 20.2038 16.6521 20.2581 17.2139L20.2392 17.195C20.295 17.8564 20.2058 18.5219 19.978 19.1453C19.7502 19.7686 19.3891 20.3346 18.92 20.8039C18.451 21.2733 17.8852 21.6345 17.2622 21.8624C16.6391 22.0904 15.9739 22.1796 15.3129 22.1237L15.3318 22.1426C14.5411 22.069 13.7469 22.2412 13.0576 22.6356C12.3683 23.0301 11.8173 23.6277 11.4799 24.3469C11.1424 25.0661 11.0349 25.872 11.172 26.6545C11.3091 27.4371 11.6841 28.1584 12.2459 28.7199C12.8076 29.2815 13.5289 29.656 14.3112 29.7924C15.0935 29.9289 15.8989 29.8206 16.6174 29.4823C17.336 29.1441 17.9328 28.5923 18.3264 27.9023C18.7201 27.2123 18.8914 26.4176 18.8171 25.6265L18.8371 25.6454C18.7813 24.9841 18.8704 24.3185 19.0982 23.6952C19.3261 23.0719 19.6871 22.5058 20.1562 22.0365C20.6253 21.5672 21.191 21.206 21.8141 20.978C22.4371 20.7501 23.1023 20.6609 23.7633 20.7167L23.7434 20.6978C24.3893 20.7559 25.0394 20.65 25.6335 20.3898C26.2276 20.1296 26.7464 19.7236 27.1419 19.2094C27.5373 18.6951 27.7967 18.0893 27.8958 17.4481C27.995 16.8069 27.9308 16.1511 27.7091 15.5413C27.4874 14.9316 27.1155 14.3877 26.6278 13.96C26.1401 13.5323 25.5524 13.2348 24.9192 13.0949C24.2859 12.955 23.6276 12.9773 23.0052 13.1597C22.3829 13.3421 21.8166 13.6788 21.359 14.1385H21.3558Z" fill="#1D2130"/>
<path d="M13.6137 19.6667L13.5938 19.6478C14.1556 19.7044 14.723 19.6354 15.2549 19.4458C15.7868 19.2562 16.2699 18.9507 16.6694 18.5513C17.0688 18.152 17.3745 17.6689 17.5645 17.1368C17.7544 16.6048 17.8238 16.0372 17.7676 15.4751L17.7875 15.494C17.7317 14.8326 17.8209 14.1671 18.0487 13.5438C18.2765 12.9204 18.6376 12.3544 19.1067 11.8851C19.5757 11.4158 20.1415 11.0545 20.7645 10.8266C21.3876 10.5986 22.0528 10.5095 22.7138 10.5653L22.6939 10.5464C23.4846 10.6207 24.2791 10.4491 24.9688 10.0551C25.6585 9.66106 26.21 9.06375 26.5479 8.34464C26.8859 7.62553 26.9939 6.81962 26.8572 6.03684C26.7205 5.25406 26.3458 4.53251 25.7842 3.97062C25.2226 3.40873 24.5014 3.03385 23.719 2.8971C22.9366 2.76036 22.1311 2.86842 21.4123 3.20654C20.6936 3.54466 20.0966 4.09638 19.7027 4.78644C19.3089 5.47651 19.1374 6.27132 19.2117 7.06248L19.1928 7.04253C19.2488 7.70391 19.1598 8.36955 18.932 8.99296C18.7042 9.61637 18.3432 10.1825 17.8741 10.6519C17.405 11.1212 16.8391 11.4824 16.216 11.7103C15.5929 11.9382 14.9276 12.0272 14.2665 11.9712L14.2854 11.9912C13.7236 11.9345 13.1562 12.0035 12.6243 12.1932C12.0924 12.3828 11.6093 12.6883 11.2098 13.0876C10.8104 13.4869 10.5047 13.9701 10.3147 14.5021C10.1248 15.0341 10.0554 15.6017 10.1116 16.1639L10.0927 16.145C10.1483 16.8063 10.0591 17.4718 9.83118 18.095C9.60328 18.7182 9.24222 19.2842 8.77319 19.7535C8.30416 20.2228 7.73844 20.584 7.11551 20.812C6.49258 21.04 5.82743 21.1293 5.16645 21.0737L5.18534 21.0926C4.39458 21.0183 3.60015 21.1899 2.91043 21.5839C2.2207 21.9779 1.66925 22.5752 1.3313 23.2943C0.993348 24.0134 0.885342 24.8193 1.02202 25.6021C1.15869 26.3849 1.53339 27.1064 2.09501 27.6683C2.65662 28.2302 3.37781 28.6051 4.16021 28.7419C4.94261 28.8786 5.74812 28.7705 6.46688 28.4324C7.18563 28.0943 7.78264 27.5426 8.17648 26.8525C8.57031 26.1625 8.74179 25.3676 8.66753 24.5765L8.68747 24.5954C8.63167 23.934 8.7208 23.2685 8.94864 22.6452C9.17647 22.0218 9.53753 21.4558 10.0066 20.9865C10.4757 20.5172 11.0415 20.1559 11.6645 19.928C12.2875 19.7 12.9527 19.6109 13.6137 19.6667Z" fill="#1D2130"/>
<path d="M6.58015 17.5594C6.97793 17.1591 7.28247 16.6759 7.47205 16.1443C7.66163 15.6126 7.73156 15.0457 7.67686 14.4839L7.6968 14.5028C7.64096 13.8413 7.73013 13.1755 7.95809 12.552C8.18605 11.9286 8.54729 11.3624 9.0166 10.893C9.48591 10.4237 10.052 10.0625 10.6752 9.83469C11.2985 9.60689 11.964 9.51796 12.6252 9.57411L12.6052 9.55521C13.3957 9.6293 14.1898 9.45764 14.8792 9.06364C15.5686 8.66965 16.1198 8.07248 16.4575 7.3536C16.7953 6.63471 16.9032 5.82909 16.7665 5.04661C16.6299 4.26412 16.2553 3.54285 15.6939 2.98116C15.1325 2.41947 14.4115 2.04471 13.6294 1.90797C12.8473 1.77124 12.0421 1.87919 11.3236 2.21711C10.605 2.55502 10.0082 3.10645 9.61437 3.79619C9.22057 4.48594 9.049 5.28043 9.12305 6.07131L9.10416 6.05241C9.15996 6.71375 9.07083 7.37932 8.84299 8.00264C8.61516 8.62596 8.2541 9.19203 7.78503 9.66133C7.31596 10.1306 6.75017 10.4919 6.12715 10.7198C5.50413 10.9478 4.8389 11.0369 4.17789 10.9811L4.19677 11C3.55089 10.9421 2.90084 11.0482 2.30685 11.3085C1.71286 11.5688 1.19416 11.9749 0.79881 12.4892C0.403458 13.0034 0.144249 13.6092 0.0452039 14.2504C-0.0538415 14.8916 0.0104804 15.5474 0.23221 16.1571C0.453939 16.7668 0.825902 17.3106 1.31363 17.7382C1.80136 18.1658 2.38907 18.4633 3.0223 18.6031C3.65553 18.7429 4.3138 18.7206 4.9361 18.5381C5.55841 18.3557 6.12461 18.019 6.58225 17.5594H6.58015Z" fill="#1D2130"/>
<path d="M39.09 7.08663H42.2069V22.2623H39.09V7.08663Z" fill="#1D2130"/>
<path d="M43.9722 17.0658C43.9678 15.9753 44.2871 14.9079 44.8895 13.999C45.4919 13.0901 46.3504 12.3806 47.3562 11.9602C48.362 11.5398 49.4699 11.4276 50.5395 11.6376C51.6092 11.8477 52.5924 12.3707 53.3647 13.1403C54.1371 13.9099 54.6637 14.8915 54.878 15.9608C55.0923 17.0301 54.9845 18.139 54.5684 19.147C54.1522 20.155 53.4465 21.0167 52.5404 21.6231C51.6344 22.2295 50.5689 22.5531 49.4788 22.5531C48.7553 22.5614 48.0373 22.4253 47.3669 22.1527C46.6965 21.8801 46.0872 21.4766 45.5745 20.9657C45.0618 20.4548 44.656 19.8468 44.3809 19.1772C44.1058 18.5076 43.9668 17.7898 43.9722 17.0658ZM51.8685 17.0658C51.8555 16.5958 51.7043 16.1399 51.4338 15.7554C51.1632 15.3708 50.7854 15.0746 50.3475 14.9036C49.9096 14.7327 49.4311 14.6948 48.9718 14.7945C48.5124 14.8942 48.0927 15.1272 47.7649 15.4643C47.4372 15.8014 47.2161 16.2276 47.1292 16.6898C47.0423 17.152 47.0935 17.6295 47.2764 18.0627C47.4593 18.4959 47.7657 18.8655 48.1575 19.1254C48.5492 19.3853 49.0088 19.5239 49.4788 19.5239C49.8007 19.5325 50.1209 19.4743 50.4192 19.3529C50.7175 19.2315 50.9874 19.0496 51.2119 18.8187C51.4365 18.5877 51.6107 18.3127 51.7237 18.0111C51.8367 17.7094 51.886 17.3875 51.8685 17.0658Z" fill="#1D2130"/>
<path d="M67.4082 11.8684V21.7384C67.4082 25.2307 64.6858 26.707 61.9225 26.707C60.9496 26.7798 59.9754 26.5832 59.1068 26.1387C58.2382 25.6941 57.5087 25.0189 56.9983 24.187L59.6577 22.6487C59.8722 23.0824 60.214 23.4401 60.6373 23.6741C61.0606 23.9081 61.5453 24.0072 62.0264 23.9581C62.3339 24.0007 62.647 23.9736 62.9427 23.8788C63.2383 23.784 63.5088 23.6239 63.7342 23.4104C63.9596 23.1968 64.1342 22.9353 64.2449 22.6452C64.3557 22.355 64.3998 22.0437 64.3741 21.7342V20.7839C64.0091 21.2307 63.5445 21.5857 63.0176 21.8204C62.4907 22.0551 61.9161 22.1629 61.34 22.1353C59.9692 22.092 58.669 21.5168 57.7146 20.5313C56.7602 19.5459 56.2265 18.2275 56.2265 16.8553C56.2265 15.4831 56.7602 14.1648 57.7146 13.1793C58.669 12.1939 59.9692 11.6187 61.34 11.5754C61.9161 11.5477 62.4907 11.6556 63.0176 11.8903C63.5445 12.1249 64.0091 12.4799 64.3741 12.9268V11.8663L67.4082 11.8684ZM64.3752 16.8569C64.3961 16.3543 64.2662 15.857 64.0023 15.4289C63.7383 15.0008 63.3523 14.6615 62.894 14.4547C62.4357 14.2479 61.926 14.1831 61.4306 14.2686C60.9351 14.354 60.4766 14.5859 60.1139 14.9343C59.7513 15.2827 59.5012 15.7317 59.3958 16.2236C59.2904 16.7154 59.3345 17.2276 59.5225 17.6941C59.7105 18.1606 60.0337 18.5602 60.4506 18.8414C60.8674 19.1226 61.3589 19.2725 61.8616 19.2719C62.1891 19.2948 62.5178 19.2488 62.8264 19.1368C63.1351 19.0249 63.4169 18.8495 63.6536 18.622C63.8904 18.3945 64.077 18.1199 64.2012 17.8159C64.3255 17.5119 64.3847 17.1852 64.3752 16.8569Z" fill="#1D2130"/>
<path d="M69.1734 17.0658C69.169 15.9753 69.4882 14.9079 70.0907 13.999C70.6931 13.0901 71.5516 12.3806 72.5574 11.9602C73.5632 11.5398 74.6711 11.4276 75.7407 11.6376C76.8103 11.8477 77.7936 12.3707 78.5659 13.1403C79.3382 13.9099 79.8649 14.8915 80.0792 15.9608C80.2934 17.0301 80.1857 18.139 79.7695 19.147C79.3534 20.155 78.6476 21.0167 77.7416 21.6231C76.8356 22.2295 75.77 22.5531 74.68 22.5531C73.9564 22.5614 73.2385 22.4253 72.5681 22.1527C71.8977 21.8801 71.2884 21.4766 70.7757 20.9657C70.263 20.4548 69.8572 19.8468 69.5821 19.1772C69.307 18.5076 69.168 17.7898 69.1734 17.0658ZM77.0697 17.0658C77.0567 16.5958 76.9055 16.1399 76.6349 15.7554C76.3644 15.3708 75.9866 15.0746 75.5487 14.9036C75.1108 14.7327 74.6323 14.6948 74.1729 14.7945C73.7136 14.8942 73.2938 15.1272 72.9661 15.4643C72.6384 15.8014 72.4172 16.2276 72.3303 16.6898C72.2435 17.152 72.2946 17.6295 72.4775 18.0627C72.6604 18.4959 72.9669 18.8655 73.3586 19.1254C73.7504 19.3853 74.21 19.5239 74.68 19.5239C75.0019 19.5325 75.3221 19.4743 75.6204 19.3529C75.9187 19.2315 76.1886 19.0496 76.4131 18.8187C76.6376 18.5877 76.8119 18.3127 76.9249 18.0111C77.0379 17.7094 77.0872 17.3875 77.0697 17.0658Z" fill="#1D2130"/>
<path d="M81.6402 9.08269C81.6402 8.71262 81.7499 8.35086 81.9554 8.04316C82.1609 7.73546 82.4529 7.49564 82.7947 7.35402C83.1364 7.2124 83.5124 7.17534 83.8752 7.24754C84.238 7.31974 84.5712 7.49794 84.8328 7.75962C85.0943 8.0213 85.2724 8.3547 85.3446 8.71765C85.4167 9.08061 85.3797 9.45683 85.2382 9.79873C85.0966 10.1406 84.8569 10.4328 84.5494 10.6384C84.2418 10.844 83.8802 10.9538 83.5103 10.9538C83.0159 10.9489 82.543 10.7502 82.1934 10.4003C81.8437 10.0505 81.6451 9.57741 81.6402 9.08269ZM81.955 11.8683H85.073V22.2633H81.9508L81.955 11.8683Z" fill="#1D2130"/>
<path d="M98.5317 17.0658C98.5677 17.7528 98.4676 18.4402 98.2372 19.0883C98.0068 19.7365 97.6506 20.3327 97.1891 20.8427C96.7275 21.3526 96.1698 21.7662 95.548 22.0598C94.9261 22.3533 94.2524 22.521 93.5655 22.5531C92.9879 22.5847 92.4105 22.4872 91.8752 22.2678C91.3399 22.0484 90.8601 21.7126 90.4706 21.2847V26.4203H87.3536V11.8683H90.4706V12.8448C90.8603 12.4172 91.3401 12.0817 91.8754 11.8625C92.4107 11.6433 92.988 11.546 93.5655 11.5775C94.2525 11.6095 94.9264 11.7771 95.5484 12.0706C96.1704 12.3642 96.7282 12.7779 97.1898 13.288C97.6513 13.7981 98.0075 14.3945 98.2378 15.0429C98.4681 15.6912 98.568 16.3787 98.5317 17.0658ZM95.4147 17.0658C95.4025 16.5793 95.2472 16.1072 94.9682 15.7086C94.6891 15.31 94.2988 15.0026 93.846 14.8249C93.3932 14.6471 92.898 14.607 92.4225 14.7094C91.947 14.8118 91.5122 15.0523 91.1727 15.4007C90.8331 15.7491 90.6037 16.19 90.5134 16.6681C90.423 17.1463 90.4756 17.6405 90.6646 18.0889C90.8536 18.5373 91.1705 18.92 91.5758 19.1891C91.9811 19.4582 92.4568 19.6016 92.9432 19.6016C93.2771 19.6164 93.6104 19.5605 93.9212 19.4375C94.232 19.3145 94.5133 19.1271 94.7467 18.8877C94.9801 18.6482 95.1602 18.3621 95.2753 18.0482C95.3905 17.7342 95.438 17.3994 95.4147 17.0658Z" fill="#1D2130"/>
<path d="M108.15 19.1438C108.15 21.5347 106.073 22.5532 103.829 22.5532C102.923 22.6353 102.012 22.4435 101.216 22.0025C100.42 21.5615 99.7736 20.8916 99.3618 20.0794L102.062 18.5411C102.171 18.9165 102.406 19.2431 102.727 19.4663C103.048 19.6895 103.435 19.7958 103.825 19.7675C104.572 19.7675 104.947 19.5386 104.947 19.1239C104.947 17.9794 99.8351 18.5831 99.8351 14.9869C99.8351 12.7199 101.747 11.5775 103.908 11.5775C104.72 11.5518 105.525 11.7446 106.237 12.1357C106.95 12.5269 107.544 13.1021 107.959 13.8014L105.3 15.2357C105.183 14.9634 104.989 14.7315 104.742 14.5689C104.494 14.4062 104.204 14.3201 103.908 14.3212C103.368 14.3212 103.035 14.5312 103.035 14.9029C103.039 16.0883 108.15 15.2977 108.15 19.1438Z" fill="#1D2130"/>
<path d="M119.536 11.8684V22.2634H116.419V21.2858C116.059 21.7172 115.603 22.057 115.087 22.2775C114.57 22.498 114.009 22.5928 113.449 22.5542C111.35 22.5542 109.566 21.058 109.566 18.2492V11.8684H112.683V17.7925C112.657 18.04 112.685 18.2903 112.765 18.5259C112.846 18.7615 112.977 18.9767 113.149 19.1566C113.321 19.3365 113.53 19.4767 113.761 19.5675C113.993 19.6583 114.242 19.6976 114.49 19.6825C115.633 19.6825 116.422 19.0178 116.422 17.5415V11.8715L119.536 11.8684Z" fill="#1D2130"/>
<path d="M137.409 15.8805V22.2624H134.292V16.1503C134.292 15.1108 133.793 14.4462 132.796 14.4462C131.757 14.4462 131.175 15.1738 131.175 16.4002V22.2624H128.059V16.1503C128.059 15.1108 127.56 14.4462 126.562 14.4462C125.523 14.4462 124.942 15.1738 124.942 16.4002V22.2624H121.825V11.8674H124.942V12.8229C125.265 12.3989 125.689 12.0628 126.176 11.8451C126.662 11.6274 127.195 11.535 127.726 11.5765C128.26 11.5504 128.791 11.663 129.268 11.9033C129.744 12.1436 130.151 12.5035 130.448 12.9478C130.793 12.483 131.251 12.1134 131.777 11.8736C132.304 11.6338 132.883 11.5316 133.461 11.5765C135.846 11.5776 137.409 13.2817 137.409 15.8805Z" fill="#1D2130"/>
<path d="M140.045 11.8043C141.323 11.8043 142.358 10.7682 142.358 9.49013C142.358 8.21203 141.323 7.17593 140.045 7.17593C138.768 7.17593 137.732 8.21203 137.732 9.49013C137.732 10.7682 138.768 11.8043 140.045 11.8043Z" fill="#1D2130"/>
</g>
<g opacity="0.6">
<path d="M271.648 7.63501H274.814V22.952H271.648V7.63501Z" fill="#1D2130"/>
<path d="M276.586 17.705C276.586 16.603 276.912 15.5258 277.522 14.61C278.132 13.6941 278.999 12.9809 280.013 12.5606C281.027 12.1404 282.143 12.032 283.218 12.2494C284.293 12.4667 285.28 12.9999 286.054 13.7813C286.827 14.5628 287.352 15.5573 287.562 16.6389C287.773 17.7205 287.658 18.8405 287.234 19.8568C286.81 20.8731 286.095 21.74 285.18 22.3476C284.265 22.9553 283.191 23.2763 282.094 23.27C281.367 23.2757 280.645 23.1354 279.972 22.8574C279.299 22.5793 278.689 22.1691 278.176 21.6508C277.663 21.1325 277.258 20.5165 276.985 19.8389C276.712 19.1613 276.577 18.4359 276.586 17.705ZM284.521 17.705C284.508 17.2299 284.357 16.769 284.085 16.3801C283.813 15.9911 283.433 15.6912 282.993 15.518C282.552 15.3448 282.071 15.3059 281.608 15.4062C281.146 15.5066 280.723 15.7416 280.393 16.082C280.063 16.4224 279.84 16.853 279.752 17.32C279.664 17.787 279.716 18.2696 279.899 18.7076C280.083 19.1455 280.391 19.5192 280.785 19.7821C281.18 20.0449 281.642 20.1852 282.115 20.1854C282.437 20.1917 282.757 20.1312 283.055 20.0077C283.353 19.8841 283.622 19.7002 283.846 19.4674C284.069 19.2346 284.243 18.958 284.356 18.6547C284.468 18.3515 284.517 18.0282 284.5 17.705H284.521Z" fill="#1D2130"/>
<path d="M300.126 12.458V22.4326C300.126 25.9518 297.383 27.4464 294.608 27.4464C293.629 27.5271 292.647 27.3317 291.773 26.8823C290.899 26.4328 290.167 25.7471 289.659 24.9024L292.329 23.3548C292.545 23.793 292.889 24.1545 293.315 24.3912C293.741 24.6279 294.229 24.7286 294.713 24.6798C295.022 24.718 295.335 24.6872 295.63 24.5896C295.926 24.4921 296.196 24.3302 296.422 24.1154C296.648 23.9007 296.823 23.6385 296.937 23.3476C297.05 23.0567 297.098 22.7442 297.077 22.4326V21.468C296.708 21.9167 296.241 22.2729 295.712 22.5084C295.182 22.7439 294.606 22.8523 294.027 22.8248C292.628 22.8248 291.286 22.2664 290.297 21.2725C289.308 20.2785 288.752 18.9305 288.752 17.5248C288.752 16.1192 289.308 14.7711 290.297 13.7771C291.286 12.7832 292.628 12.2248 294.027 12.2248C294.606 12.1973 295.182 12.3057 295.712 12.5412C296.241 12.7767 296.708 13.1329 297.077 13.5816V12.5216L300.126 12.458ZM297.077 17.493C297.098 16.9859 296.967 16.484 296.702 16.0519C296.437 15.6199 296.049 15.2774 295.589 15.0685C295.128 14.8596 294.616 14.7938 294.118 14.8797C293.62 14.9655 293.159 15.1991 292.795 15.5503C292.43 15.9015 292.178 16.3542 292.071 16.8504C291.965 17.3466 292.008 17.8634 292.197 18.3345C292.385 18.8055 292.709 19.2093 293.127 19.4938C293.546 19.7783 294.039 19.9306 294.544 19.931C294.874 19.9549 295.205 19.909 295.516 19.7963C295.827 19.6837 296.111 19.5068 296.35 19.277C296.588 19.0473 296.776 18.7698 296.901 18.4625C297.027 18.1552 297.086 17.8249 297.077 17.493Z" fill="#1D2130"/>
<path d="M301.909 17.705C301.909 16.6039 302.234 15.5275 302.843 14.6121C303.453 13.6968 304.318 12.9835 305.331 12.5626C306.344 12.1417 307.458 12.0321 308.533 12.2477C309.608 12.4633 310.595 12.9944 311.369 13.7737C312.143 14.5531 312.67 15.5456 312.883 16.6258C313.095 17.706 312.984 18.8253 312.563 19.842C312.142 20.8587 311.431 21.7271 310.518 22.3373C309.606 22.9475 308.534 23.2721 307.438 23.27C306.709 23.2771 305.986 23.1379 305.311 22.8606C304.637 22.5834 304.024 22.1735 303.509 21.6552C302.994 21.1369 302.587 20.5205 302.313 19.8422C302.038 19.1639 301.901 18.4373 301.909 17.705ZM309.844 17.705C309.831 17.2295 309.679 16.7682 309.407 16.379C309.135 15.9898 308.754 15.69 308.313 15.5171C307.872 15.3442 307.39 15.3059 306.927 15.4071C306.464 15.5083 306.042 15.7444 305.712 16.0858C305.382 16.4273 305.16 16.8589 305.074 17.3265C304.987 17.7942 305.04 18.2772 305.225 18.7149C305.411 19.1526 305.72 19.5257 306.116 19.7872C306.511 20.0488 306.975 20.1873 307.448 20.1854C307.771 20.1917 308.09 20.1312 308.388 20.0077C308.686 19.8841 308.955 19.7002 309.179 19.4674C309.403 19.2346 309.576 18.958 309.689 18.6547C309.801 18.3515 309.85 18.0282 309.833 17.705H309.844Z" fill="#1D2130"/>
<path d="M314.433 9.64896C314.433 9.27578 314.543 8.91099 314.75 8.6007C314.956 8.29042 315.25 8.04859 315.593 7.90578C315.936 7.76297 316.314 7.72561 316.678 7.79841C317.042 7.87121 317.377 8.05091 317.639 8.31479C317.902 8.57866 318.081 8.91486 318.153 9.28086C318.226 9.64686 318.189 10.0262 318.047 10.371C317.904 10.7158 317.664 11.0104 317.355 11.2178C317.046 11.4251 316.683 11.5358 316.311 11.5358C315.815 11.5302 315.341 11.3297 314.989 10.977C314.638 10.6244 314.439 10.1477 314.433 9.64896ZM314.739 12.458H317.905V22.952H314.739V12.458Z" fill="#1D2130"/>
<path d="M331.452 17.705C331.488 18.4029 331.386 19.101 331.151 19.7591C330.917 20.4171 330.556 21.0222 330.088 21.5394C329.62 22.0566 329.055 22.4758 328.426 22.7728C327.796 23.0698 327.114 23.2388 326.419 23.27C325.83 23.3094 325.239 23.2146 324.691 22.9925C324.143 22.7704 323.652 22.4268 323.254 21.9874V27.1708H320.089V12.458H323.254V13.4438C323.652 13.0057 324.143 12.6637 324.692 12.4435C325.24 12.2232 325.83 12.1303 326.419 12.1718C327.112 12.2031 327.791 12.3711 328.418 12.6661C329.046 12.9611 329.609 13.3774 330.077 13.8912C330.544 14.4051 330.906 15.0063 331.142 15.6607C331.378 16.3151 331.483 17.0097 331.452 17.705ZM328.287 17.705C328.274 17.2127 328.118 16.7351 327.836 16.3319C327.555 15.9287 327.161 15.618 326.704 15.4387C326.248 15.2594 325.749 15.2195 325.27 15.324C324.79 15.4284 324.353 15.6726 324.011 16.0259C323.67 16.3792 323.44 16.8259 323.35 17.3101C323.26 17.7942 323.314 18.2942 323.506 18.7474C323.698 19.2006 324.019 19.5869 324.428 19.8578C324.837 20.1287 325.317 20.2722 325.807 20.2702C326.143 20.2845 326.478 20.2274 326.79 20.1025C327.103 19.9777 327.385 19.7879 327.619 19.5457C327.853 19.3035 328.034 19.0143 328.149 18.6971C328.264 18.3799 328.311 18.0418 328.287 17.705Z" fill="#1D2130"/>
<path d="M341.085 19.8038C341.085 22.2206 338.975 23.2488 336.738 23.2488C335.826 23.3313 334.91 23.137 334.109 22.6911C333.308 22.2451 332.658 21.568 332.244 20.7472L334.966 19.1996C335.074 19.5778 335.307 19.9074 335.628 20.1331C335.949 20.3589 336.337 20.4671 336.728 20.4398C337.477 20.4398 337.857 20.2066 337.857 19.7826C337.857 18.6272 332.718 19.242 332.718 15.6062C332.718 13.3166 334.639 12.1718 336.812 12.1718C337.638 12.1346 338.459 12.3229 339.187 12.7167C339.916 13.1105 340.524 13.6951 340.948 14.4084L338.226 15.85C338.106 15.5765 337.909 15.3439 337.66 15.1803C337.411 15.0166 337.12 14.9289 336.823 14.9278C336.274 14.9278 335.947 15.1398 335.947 15.5108C335.947 16.7192 341.085 15.9242 341.085 19.8038Z" fill="#1D2130"/>
<path d="M352.554 12.458V22.952H349.389V21.9662C349.03 22.4026 348.573 22.7479 348.056 22.9744C347.539 23.2009 346.977 23.3022 346.414 23.27C344.303 23.27 342.499 21.7542 342.499 18.924V12.458H345.665V18.447C345.64 18.6974 345.669 18.9503 345.751 19.1881C345.833 19.4259 345.965 19.643 346.139 19.8244C346.312 20.0058 346.523 20.1472 346.756 20.2388C346.99 20.3304 347.24 20.3701 347.49 20.355C348.629 20.355 349.431 19.6766 349.431 18.235V12.458H352.554Z" fill="#1D2130"/>
<path d="M370.491 16.5072V22.952H367.326V16.7828C367.326 15.7228 366.83 15.0656 365.828 15.0656C364.825 15.0656 364.192 15.797 364.192 17.0372V22.952H361.027V16.7828C361.027 15.7228 360.531 15.0656 359.529 15.0656C358.526 15.0656 357.893 15.797 357.893 17.0372V22.952H354.728V12.458H357.893V13.4226C358.221 12.9964 358.649 12.6589 359.139 12.4406C359.629 12.2222 360.166 12.1298 360.7 12.1718C361.235 12.1437 361.769 12.256 362.248 12.4976C362.727 12.7392 363.135 13.1018 363.433 13.5498C363.78 13.0817 364.241 12.7098 364.77 12.4689C365.3 12.2279 365.881 12.1257 366.461 12.1718C368.93 12.1718 370.491 13.889 370.491 16.5072Z" fill="#1D2130"/>
<path d="M252.794 4.87902V0.374023H238.655V31.326H252.794V26.821C249.897 26.821 247.12 25.6651 245.072 23.6077C243.024 21.5502 241.873 18.7597 241.873 15.85C241.873 12.9403 243.024 10.1498 245.072 8.09235C247.12 6.03489 249.897 4.87902 252.794 4.87902Z" fill="#1D2130"/>
<path d="M252.794 4.87902V26.821C255.69 26.821 258.467 25.6652 260.515 23.6077C262.563 21.5502 263.714 18.7597 263.714 15.85C263.714 12.9403 262.563 10.1498 260.515 8.09236C258.467 6.03489 255.69 4.87902 252.794 4.87902Z" fill="#1D2130"/>
<path d="M373.15 12.3944C374.432 12.3944 375.472 11.3503 375.472 10.0624C375.472 8.77447 374.432 7.73039 373.15 7.73039C371.868 7.73039 370.829 8.77447 370.829 10.0624C370.829 11.3503 371.868 12.3944 373.15 12.3944Z" fill="#1D2130"/>
</g>
<g opacity="0.6">
<path d="M508.063 9.63463H511.229V22.3711H508.063V9.63463ZM512.484 17.5621C512.484 14.4121 514.426 12.5326 517.422 12.5326C520.419 12.5326 522.36 14.4121 522.36 17.5621C522.36 20.7121 520.461 22.6021 517.422 22.6021C514.383 22.6021 512.484 20.7646 512.484 17.5621ZM519.184 17.5621C519.184 15.8296 518.498 14.8111 517.422 14.8111C516.346 14.8111 515.671 15.8611 515.671 17.5621C515.671 19.2631 516.335 20.2921 517.422 20.2921C518.509 20.2921 519.184 19.3261 519.184 17.5726V17.5621ZM523.552 22.9906H526.591C526.736 23.3104 526.98 23.5751 527.288 23.7453C527.596 23.9156 527.951 23.9824 528.3 23.9356C529.503 23.9356 530.136 23.2846 530.136 22.3396V20.5756H530.073C529.821 21.1163 529.412 21.5693 528.898 21.8762C528.385 22.1832 527.791 22.33 527.193 22.2976C524.882 22.2976 523.352 20.5441 523.352 17.5306C523.352 14.5171 524.808 12.6166 527.235 12.6166C527.852 12.5926 528.461 12.7567 528.981 13.087C529.502 13.4172 529.909 13.8979 530.147 14.4646V12.7111H533.312V22.2661C533.312 24.5656 531.276 25.9936 528.269 25.9936C525.473 25.9936 523.732 24.7441 523.552 23.0011V22.9906ZM530.147 17.5516C530.147 16.0186 529.44 15.0526 528.321 15.0526C527.203 15.0526 526.517 16.0081 526.517 17.5516C526.517 19.0951 527.193 19.9666 528.321 19.9666C529.45 19.9666 530.147 19.1161 530.147 17.5621V17.5516ZM534.504 17.5516C534.504 14.4016 536.446 12.5221 539.442 12.5221C542.439 12.5221 544.391 14.4016 544.391 17.5516C544.391 20.7016 542.492 22.5916 539.442 22.5916C536.393 22.5916 534.504 20.7646 534.504 17.5621V17.5516ZM541.204 17.5516C541.204 15.8191 540.519 14.8006 539.442 14.8006C538.366 14.8006 537.744 15.8611 537.744 17.5726C537.744 19.2841 538.408 20.3026 539.485 20.3026C540.561 20.3026 541.204 19.3261 541.204 17.5726V17.5516ZM545.594 10.4221C545.585 10.1041 545.672 9.79077 545.843 9.52187C546.014 9.25297 546.261 9.04061 546.553 8.91171C546.846 8.78281 547.17 8.74318 547.485 8.79784C547.8 8.85249 548.091 8.99898 548.322 9.21872C548.554 9.43846 548.714 9.72157 548.783 10.0321C548.853 10.3427 548.828 10.6668 548.712 10.9633C548.596 11.2597 548.394 11.5153 548.132 11.6974C547.87 11.8796 547.559 11.9803 547.24 11.9866C547.028 12.0011 546.815 11.9718 546.615 11.9007C546.415 11.8295 546.232 11.7179 546.078 11.5729C545.923 11.428 545.8 11.2528 545.717 11.0584C545.634 10.8639 545.592 10.6545 545.594 10.4431V10.4221ZM545.594 12.7321H548.759V22.3711H545.594V12.7321ZM560.249 17.5516C560.249 20.7016 558.846 22.4971 556.44 22.4971C555.823 22.5365 555.209 22.3865 554.681 22.0672C554.153 21.748 553.735 21.275 553.486 20.7121H553.423V25.4581H550.257V12.7111H553.423V14.4331H553.486C553.724 13.861 554.133 13.3757 554.658 13.0431C555.183 12.7106 555.798 12.547 556.419 12.5746C558.846 12.6166 560.291 14.4226 560.291 17.5726L560.249 17.5516ZM557.084 17.5516C557.084 16.0186 556.377 15.0421 555.269 15.0421C554.161 15.0421 553.454 16.0291 553.444 17.5516C553.433 19.0741 554.161 20.0506 555.269 20.0506C556.377 20.0506 557.084 19.0951 557.084 17.5726V17.5516ZM565.683 12.5116C568.31 12.5116 569.904 13.7506 569.977 15.7351H567.097C567.097 15.0526 566.527 14.6221 565.651 14.6221C564.776 14.6221 564.385 14.9581 564.385 15.4516C564.385 15.9451 564.733 16.1026 565.44 16.2496L567.466 16.6591C569.397 17.0686 570.22 17.8456 570.22 19.3051C570.22 21.3001 568.395 22.5811 565.704 22.5811C563.014 22.5811 561.252 21.3001 561.114 19.3366H564.164C564.259 20.0506 564.828 20.4706 565.757 20.4706C566.685 20.4706 567.107 20.1661 567.107 19.6621C567.107 19.1581 566.812 19.0531 566.052 18.8956L564.227 18.5071C562.338 18.1186 561.347 17.1211 561.347 15.6511C561.368 13.7611 563.066 12.5326 565.683 12.5326V12.5116ZM580.782 22.3501H577.732V20.5546H577.669C577.502 21.1575 577.132 21.6851 576.621 22.0499C576.111 22.4147 575.49 22.5948 574.863 22.5601C574.382 22.5873 573.9 22.5115 573.452 22.3377C573.003 22.164 572.596 21.8964 572.26 21.553C571.924 21.2096 571.666 20.7984 571.503 20.3472C571.341 19.896 571.277 19.4153 571.317 18.9376V12.7111H574.483V18.2131C574.483 19.3576 575.074 19.9666 576.055 19.9666C576.285 19.9671 576.512 19.9186 576.722 19.8244C576.932 19.7302 577.119 19.5925 577.271 19.4205C577.423 19.2485 577.536 19.0461 577.603 18.827C577.67 18.6079 577.689 18.3771 577.659 18.1501V12.7111H580.824L580.782 22.3501ZM582.312 12.7111H585.371V14.5696H585.435C585.603 13.9748 585.964 13.4522 586.463 13.0836C586.961 12.715 587.568 12.5212 588.189 12.5326C588.82 12.4823 589.448 12.6704 589.946 13.0595C590.445 13.4486 590.778 14.0102 590.879 14.6326H590.942C591.134 14.0036 591.53 13.4559 592.069 13.0757C592.608 12.6955 593.258 12.5044 593.918 12.5326C594.348 12.5182 594.777 12.5941 595.176 12.7554C595.575 12.9166 595.936 13.1597 596.234 13.4686C596.533 13.7776 596.763 14.1456 596.909 14.5487C597.055 14.9519 597.115 15.3811 597.083 15.8086V22.3711H593.918V16.6486C593.918 15.5986 593.443 15.1156 592.557 15.1156C592.359 15.114 592.163 15.1545 591.983 15.2345C591.802 15.3145 591.641 15.4321 591.51 15.5794C591.379 15.7267 591.281 15.9002 591.224 16.0883C591.166 16.2764 591.149 16.4746 591.175 16.6696V22.3711H588.168V16.6066C588.168 15.6406 587.693 15.1156 586.828 15.1156C586.628 15.1157 586.43 15.1579 586.248 15.2396C586.066 15.3212 585.903 15.4403 585.77 15.5892C585.637 15.738 585.538 15.9131 585.478 16.103C585.419 16.2929 585.4 16.4931 585.424 16.6906V22.3711H582.259L582.312 12.7111Z" fill="#1D2130"/>
<path d="M499.211 10.2122C498.674 8.99037 497.963 7.85172 497.101 6.83119C495.826 5.27754 494.234 4.01025 492.431 3.11273C490.629 2.2152 488.655 1.70779 486.641 1.62388C484.627 1.53998 482.618 1.88149 480.746 2.62593C478.875 3.37037 477.182 4.50087 475.781 5.94302C474.38 7.38517 473.302 9.10628 472.617 10.9931C471.932 12.8798 471.657 14.8895 471.809 16.8898C471.961 18.8901 472.537 20.8357 473.499 22.5984C474.462 24.3612 475.788 25.9013 477.391 27.1172C478.42 27.913 479.557 28.5599 480.768 29.0387C482.465 29.731 484.282 30.0877 486.117 30.0887C489.904 30.0803 493.534 28.578 496.21 25.9111C498.886 23.2441 500.39 19.6301 500.393 15.8612C500.395 13.9171 499.993 11.9936 499.211 10.2122ZM486.106 4.51069C487.754 4.51051 489.382 4.86888 490.876 5.56069C490.511 5.71731 490.128 5.82671 489.736 5.88619C488.445 6.07214 487.249 6.66852 486.327 7.58632C485.405 8.50412 484.806 9.69411 484.619 10.9787C484.537 11.6991 484.207 12.3693 483.687 12.8762C483.166 13.3831 482.485 13.6957 481.759 13.7612C480.468 13.9471 479.273 14.5435 478.35 15.4613C477.428 16.3791 476.829 17.5691 476.642 18.8537C476.579 19.5387 476.285 20.1824 475.808 20.6807C474.986 18.9516 474.617 17.0436 474.735 15.1343C474.853 13.225 475.454 11.3763 476.483 9.76042C477.511 8.14452 478.934 6.81388 480.619 5.89233C482.303 4.97077 484.195 4.48826 486.117 4.48969L486.106 4.51069ZM477.381 23.2112C477.507 23.0957 477.634 22.9907 477.76 22.8647C478.699 21.959 479.302 20.7635 479.47 19.4732C479.538 18.7479 479.863 18.0704 480.388 17.5622C480.892 17.0395 481.571 16.7183 482.297 16.6592C483.588 16.4732 484.784 15.8769 485.706 14.9591C486.629 14.0413 487.228 12.8513 487.415 11.5667C487.46 10.8081 487.788 10.0934 488.333 9.56119C488.85 9.04863 489.535 8.73915 490.264 8.68969C491.449 8.52732 492.555 8.00269 493.429 7.18819C494.423 8.00936 495.266 8.99723 495.919 10.1072C495.879 10.1611 495.833 10.2104 495.782 10.2542C495.278 10.7815 494.6 11.1097 493.872 11.1782C492.58 11.3609 491.382 11.9562 490.459 12.8746C489.537 13.793 488.938 14.9848 488.755 16.2707C488.68 16.9935 488.357 17.6686 487.84 18.1814C487.323 18.6943 486.643 19.0134 485.916 19.0847C484.622 19.2692 483.422 19.8644 482.494 20.7818C481.566 21.6993 480.961 22.89 480.768 24.1772C480.711 24.6904 480.534 25.1831 480.251 25.6157C479.168 24.9761 478.198 24.1637 477.381 23.2112ZM486.106 27.2642C485.036 27.2653 483.97 27.1169 482.941 26.8232C483.293 26.1701 483.522 25.4583 483.616 24.7232C483.69 24.0019 484.012 23.3282 484.527 22.8155C485.042 22.3029 485.719 21.9828 486.444 21.9092C487.737 21.7253 488.935 21.1299 489.859 20.2119C490.784 19.2939 491.384 18.1028 491.572 16.8167C491.646 16.0954 491.968 15.4217 492.483 14.909C492.998 14.3964 493.675 14.0763 494.4 14.0027C495.372 13.8768 496.3 13.5163 497.101 12.9527C497.545 14.6305 497.598 16.3874 497.255 18.0886C496.911 19.7898 496.181 21.3901 495.119 22.7668C494.058 24.1434 492.694 25.2598 491.131 26.0303C489.569 26.8008 487.85 27.2049 486.106 27.2117V27.2642Z" fill="#1D2130"/>
</g>
<g opacity="0.6">
<path d="M733.09 23.5433C732.465 23.5768 731.848 23.4009 731.337 23.0441C731.124 22.8872 730.952 22.6812 730.837 22.4439C730.721 22.2065 730.666 21.9449 730.676 21.6817V12.0409C730.671 12.0001 730.675 11.9586 730.689 11.9197C730.702 11.8808 730.724 11.8455 730.754 11.8164C730.783 11.7873 730.819 11.7653 730.858 11.7519C730.897 11.7385 730.939 11.7342 730.98 11.7393H732.743C732.943 11.7393 733.037 11.8433 733.037 12.0409V20.9329C733.037 21.3281 733.216 21.5257 733.583 21.5257C733.739 21.532 733.894 21.5145 734.045 21.4737C734.255 21.4737 734.37 21.5361 734.381 21.7233L734.538 23.0233C734.545 23.0612 734.545 23.1002 734.536 23.1378C734.527 23.1754 734.51 23.2107 734.486 23.2413C734.462 23.2718 734.432 23.2969 734.397 23.315C734.363 23.333 734.325 23.3434 734.286 23.3457C733.9 23.4721 733.496 23.5387 733.09 23.5433Z" fill="#1D2130"/>
<path d="M743.007 22.4305C742.121 23.1559 741.008 23.5527 739.859 23.5527C738.71 23.5527 737.596 23.1559 736.71 22.4305C735.932 21.6516 735.495 20.5994 735.495 19.5029C735.495 18.4065 735.932 17.3543 736.71 16.5753C737.598 15.8537 738.711 15.4593 739.859 15.4593C741.007 15.4593 742.12 15.8537 743.007 16.5753C743.768 17.3615 744.193 18.4086 744.193 19.4977C744.193 20.5869 743.768 21.634 743.007 22.4201V22.4305ZM738.368 21.0577C738.78 21.4268 739.315 21.6312 739.869 21.6312C740.424 21.6312 740.959 21.4268 741.37 21.0577C741.742 20.6338 741.947 20.0908 741.947 19.5289C741.947 18.9671 741.742 18.4241 741.37 18.0001C740.959 17.6311 740.424 17.4267 739.869 17.4267C739.315 17.4267 738.78 17.6311 738.368 18.0001C737.996 18.4241 737.791 18.9671 737.791 19.5289C737.791 20.0908 737.996 20.6338 738.368 21.0577Z" fill="#1D2130"/>
<path d="M753.901 15.7225C754.1 15.7225 754.195 15.8265 754.195 16.0241V23.4809C754.213 23.9842 754.118 24.4852 753.916 24.9475C753.715 25.4098 753.412 25.8219 753.03 26.1537C752.181 26.8707 751.09 27.2423 749.976 27.1937C748.969 27.2287 747.977 26.9564 747.132 26.4137C746.771 26.1789 746.463 25.8731 746.226 25.5153C745.99 25.1574 745.83 24.7553 745.757 24.3337C745.757 24.1257 745.757 24.0321 746.04 24.0321H747.803C747.878 24.0346 747.951 24.0585 748.012 24.101C748.074 24.1434 748.121 24.2026 748.15 24.2713C748.264 24.5871 748.492 24.8501 748.79 25.0097C749.153 25.1953 749.557 25.2882 749.965 25.2801C750.212 25.2935 750.458 25.258 750.691 25.1759C750.923 25.0938 751.137 24.9665 751.319 24.8017C751.485 24.6292 751.615 24.4251 751.7 24.2017C751.785 23.9783 751.823 23.7401 751.812 23.5017V22.8465C751.181 23.3066 750.413 23.5445 749.629 23.5225C749.081 23.5422 748.534 23.452 748.022 23.2572C747.51 23.0624 747.043 22.7671 746.649 22.3889C745.892 21.6132 745.469 20.5765 745.469 19.4977C745.469 18.4188 745.892 17.3822 746.649 16.6065C747.045 16.2316 747.513 15.9392 748.024 15.7463C748.536 15.5533 749.082 15.4639 749.629 15.4833C750.435 15.4622 751.224 15.7155 751.865 16.2009V16.0345C751.86 15.9946 751.864 15.9542 751.877 15.9162C751.89 15.8781 751.911 15.8434 751.939 15.8145C751.967 15.7856 752.002 15.7633 752.04 15.7492C752.078 15.7351 752.118 15.7295 752.159 15.7329L753.901 15.7225ZM749.829 21.6713C750.099 21.6796 750.368 21.6289 750.616 21.5229C750.865 21.4169 751.087 21.2581 751.266 21.0577C751.615 20.6112 751.805 20.0624 751.805 19.4977C751.805 18.9329 751.615 18.3842 751.266 17.9377C751.087 17.74 750.867 17.5836 750.62 17.4794C750.374 17.3752 750.107 17.3257 749.839 17.3345C749.566 17.326 749.294 17.3764 749.042 17.4824C748.79 17.5883 748.564 17.7472 748.38 17.9481C747.994 18.3752 747.791 18.9348 747.814 19.5081C747.795 20.0757 747.994 20.6294 748.37 21.0577C748.554 21.258 748.78 21.4165 749.032 21.5224C749.283 21.6283 749.555 21.6791 749.829 21.6713Z" fill="#1D2130"/>
<path d="M763.251 22.4305C762.364 23.1521 761.251 23.5465 760.103 23.5465C758.955 23.5465 757.842 23.1521 756.955 22.4305C756.193 21.6426 755.768 20.5938 755.768 19.5029C755.768 18.412 756.193 17.3632 756.955 16.5753C757.843 15.8555 758.955 15.4623 760.103 15.4623C761.251 15.4623 762.363 15.8555 763.251 16.5753C764.012 17.3614 764.437 18.4085 764.437 19.4977C764.437 20.5869 764.012 21.6339 763.251 22.4201V22.4305ZM758.602 21.0577C758.803 21.2474 759.041 21.3956 759.3 21.4938C759.559 21.5919 759.836 21.6381 760.113 21.6297C760.389 21.6368 760.664 21.5899 760.921 21.4917C761.179 21.3936 761.414 21.2461 761.614 21.0577C761.98 20.6309 762.181 20.089 762.181 19.5289C762.181 18.9688 761.98 18.4269 761.614 18.0001C761.414 17.8117 761.179 17.6642 760.921 17.566C760.664 17.4679 760.389 17.421 760.113 17.4281C759.836 17.4196 759.559 17.4658 759.3 17.564C759.041 17.6622 758.803 17.8104 758.602 18.0001C758.236 18.4269 758.035 18.9688 758.035 19.5289C758.035 20.089 758.236 20.6309 758.602 21.0577Z" fill="#1D2130"/>
<path d="M768.226 13.9545C767.949 14.1952 767.592 14.3278 767.224 14.3278C766.855 14.3278 766.499 14.1952 766.221 13.9545C766.096 13.8369 765.995 13.695 765.927 13.5377C765.859 13.3803 765.823 13.2107 765.823 13.0393C765.823 12.8679 765.859 12.6984 765.927 12.541C765.995 12.3836 766.096 12.2418 766.221 12.1241C766.502 11.8895 766.857 11.7608 767.224 11.7608C767.591 11.7608 767.946 11.8895 768.226 12.1241C768.352 12.2418 768.452 12.3836 768.52 12.541C768.589 12.6984 768.624 12.8679 768.624 13.0393C768.624 13.2107 768.589 13.3803 768.52 13.5377C768.452 13.695 768.352 13.8369 768.226 13.9545ZM768.446 23.5433C767.823 23.5736 767.206 23.3981 766.694 23.0441C766.483 22.885 766.315 22.6782 766.201 22.4412C766.088 22.2042 766.034 21.9438 766.043 21.6817V16.0241C766.038 15.9833 766.042 15.9419 766.056 15.903C766.069 15.8641 766.092 15.8288 766.121 15.7997C766.15 15.7706 766.186 15.7485 766.225 15.7352C766.264 15.7218 766.306 15.7175 766.347 15.7225H768.111C768.31 15.7225 768.404 15.8265 768.404 16.0241V20.9329C768.404 21.3281 768.583 21.5257 768.94 21.5257C769.099 21.5314 769.258 21.5139 769.412 21.4737C769.622 21.4737 769.737 21.5361 769.748 21.7233L769.905 23.0233C769.913 23.0612 769.912 23.1003 769.903 23.1379C769.894 23.1755 769.877 23.2108 769.853 23.2413C769.829 23.2719 769.799 23.297 769.765 23.315C769.73 23.333 769.692 23.3435 769.653 23.3457C769.264 23.4729 768.857 23.5395 768.446 23.5433Z" fill="#1D2130"/>
<path d="M776.391 15.4729C776.942 15.4514 777.491 15.5397 778.007 15.7326C778.522 15.9256 778.994 16.2192 779.392 16.5961C780.135 17.3854 780.547 18.4241 780.547 19.5029C780.547 20.5818 780.135 21.6205 779.392 22.4097C778.995 22.79 778.525 23.0865 778.009 23.2814C777.493 23.4762 776.943 23.5653 776.391 23.5433C775.605 23.5607 774.835 23.3233 774.198 22.8673V26.6217C774.198 26.8193 774.093 26.9129 773.893 26.9129H772.13C772.09 26.9204 772.048 26.918 772.009 26.906C771.97 26.894 771.935 26.8728 771.906 26.8441C771.877 26.8154 771.855 26.7802 771.843 26.7414C771.831 26.7027 771.829 26.6616 771.836 26.6217V18.0937C771.849 18.0103 771.841 17.9252 771.814 17.8452C771.788 17.7651 771.742 17.6924 771.682 17.6328C771.622 17.5732 771.549 17.5283 771.468 17.5018C771.387 17.4753 771.301 17.4679 771.217 17.4801H770.871C770.64 17.4801 770.524 17.3969 770.524 17.2305V16.0033C770.519 15.9274 770.54 15.8519 770.584 15.7895C770.628 15.727 770.692 15.6814 770.766 15.6601C771.129 15.5294 771.513 15.4659 771.899 15.4729C772.284 15.4392 772.671 15.5201 773.009 15.7054C773.348 15.8907 773.623 16.1719 773.799 16.5129C774.137 16.1741 774.541 15.9071 774.987 15.7283C775.432 15.5494 775.91 15.4626 776.391 15.4729ZM774.754 21.0577C774.941 21.2515 775.166 21.4058 775.415 21.5111C775.663 21.6165 775.931 21.6708 776.202 21.6708C776.473 21.6708 776.741 21.6165 776.989 21.5111C777.238 21.4058 777.463 21.2515 777.65 21.0577C778.044 20.6221 778.252 20.0512 778.228 19.4665C778.255 18.8814 778.047 18.3092 777.65 17.8753C777.463 17.6815 777.238 17.5273 776.989 17.4219C776.741 17.3166 776.473 17.2623 776.202 17.2623C775.931 17.2623 775.663 17.3166 775.415 17.4219C775.166 17.5273 774.941 17.6815 774.754 17.8753C774.372 18.3169 774.173 18.8855 774.198 19.4665C774.176 20.0471 774.375 20.6146 774.754 21.0577Z" fill="#1D2130"/>
<path d="M785.5 23.5433C784.558 23.5816 783.624 23.3583 782.803 22.8985C782.474 22.7019 782.193 22.4343 781.983 22.1157C781.772 21.797 781.636 21.4354 781.586 21.0577C781.586 20.8497 781.659 20.7457 781.89 20.7457H783.433C783.506 20.7485 783.577 20.7714 783.638 20.8117C783.7 20.8521 783.748 20.9084 783.779 20.9745C784 21.5361 784.577 21.8169 785.5 21.8169C785.822 21.8315 786.143 21.7672 786.434 21.6297C786.535 21.5847 786.621 21.5136 786.684 21.4238C786.747 21.3341 786.784 21.2291 786.791 21.1201C786.791 20.8497 786.623 20.6625 786.287 20.5377C785.889 20.4063 785.477 20.3191 785.059 20.2777C784.565 20.2222 784.074 20.1353 783.59 20.0177C783.12 19.9122 782.692 19.6695 782.362 19.3209C782.168 19.0839 782.025 18.8099 781.942 18.5159C781.859 18.2218 781.839 17.9141 781.881 17.6117C781.923 17.3093 782.028 17.0188 782.188 16.7582C782.349 16.4976 782.562 16.2725 782.814 16.0969C783.57 15.6194 784.458 15.3867 785.353 15.4313C786.221 15.4022 787.079 15.6148 787.83 16.0449C788.133 16.2148 788.394 16.4496 788.593 16.7321C788.793 17.0145 788.927 17.3376 788.985 17.6777C788.985 17.8857 788.89 17.9897 788.701 17.9897H787.148C787.083 17.9935 787.017 17.9777 786.961 17.9443C786.905 17.9109 786.86 17.8615 786.833 17.8025C786.729 17.5561 786.534 17.3588 786.287 17.2513C786.009 17.1071 785.699 17.0355 785.385 17.0433C785.077 17.0267 784.77 17.0875 784.493 17.2201C784.395 17.2575 784.311 17.323 784.251 17.4083C784.191 17.4935 784.158 17.5946 784.157 17.6985C784.164 17.8407 784.216 17.977 784.307 18.0875C784.398 18.1979 784.522 18.2766 784.661 18.3121C785.064 18.4626 785.483 18.5673 785.91 18.6241C786.4 18.6881 786.887 18.7783 787.368 18.8945C787.839 19 788.266 19.2427 788.596 19.5913C788.773 19.7833 788.909 20.0081 788.997 20.2527C789.085 20.4972 789.124 20.7567 789.11 21.0161C789.119 21.3756 789.034 21.7313 788.863 22.0484C788.692 22.3656 788.441 22.6334 788.134 22.8257C787.35 23.3245 786.431 23.5748 785.5 23.5433Z" fill="#1D2130"/>
<path d="M800.203 23.0233C800.209 23.0602 800.208 23.0979 800.199 23.1343C800.19 23.1706 800.174 23.2048 800.151 23.2348C800.129 23.2648 800.1 23.2901 800.068 23.3091C800.035 23.3282 799.999 23.3406 799.962 23.3457C799.579 23.4697 799.179 23.5363 798.776 23.5433C798.377 23.5842 797.975 23.5224 797.607 23.3639C797.239 23.2054 796.919 22.9555 796.677 22.6385C795.936 23.2701 794.977 23.5942 794.001 23.5433C793.548 23.564 793.095 23.4905 792.672 23.3275C792.249 23.1645 791.865 22.9156 791.545 22.5969C791.227 22.2629 790.981 21.8688 790.82 21.4381C790.66 21.0074 790.589 20.549 790.611 20.0905V16.0241C790.611 15.8265 790.706 15.7225 790.905 15.7225H792.668C792.868 15.7225 792.962 15.8265 792.962 16.0241V19.7785C792.943 20.2462 793.104 20.7037 793.413 21.0577C793.568 21.2199 793.755 21.3474 793.963 21.4317C794.172 21.516 794.396 21.5552 794.62 21.5465C794.85 21.5565 795.08 21.5212 795.296 21.4426C795.512 21.3641 795.711 21.2438 795.88 21.0889C796.04 20.9256 796.164 20.7315 796.245 20.5186C796.326 20.3057 796.363 20.0786 796.352 19.8513V16.0241C796.352 15.8265 796.446 15.7225 796.646 15.7225H798.43C798.629 15.7225 798.724 15.8265 798.724 16.0241V20.9225C798.724 21.3281 798.902 21.5257 799.248 21.5257C799.411 21.5319 799.574 21.5144 799.731 21.4737C799.771 21.4627 799.813 21.4607 799.853 21.4679C799.894 21.4751 799.932 21.4913 799.965 21.5154C799.999 21.5394 800.026 21.5706 800.045 21.6066C800.065 21.6426 800.076 21.6825 800.077 21.7233L800.203 23.0233Z" fill="#1D2130"/>
<path d="M816.879 23.0233C816.889 23.0606 816.89 23.0994 816.882 23.137C816.875 23.1747 816.859 23.2102 816.836 23.241C816.812 23.2718 816.783 23.2972 816.749 23.3153C816.715 23.3334 816.677 23.3438 816.638 23.3457C816.248 23.4714 815.841 23.5381 815.431 23.5433C814.807 23.5752 814.19 23.3995 813.679 23.0441C813.457 22.8919 813.277 22.6879 813.155 22.4502C813.032 22.2126 812.97 21.9486 812.975 21.6817V19.2377C812.998 18.7714 812.84 18.3141 812.535 17.9585C812.387 17.796 812.206 17.6678 812.002 17.5833C811.799 17.4988 811.579 17.46 811.359 17.4697C811.161 17.4623 810.963 17.4996 810.781 17.5789C810.6 17.6582 810.438 17.7773 810.31 17.9273C810.033 18.2758 809.891 18.7113 809.911 19.1545V22.9921C809.911 23.1897 809.817 23.2937 809.617 23.2937H807.843C807.802 23.2988 807.76 23.2945 807.721 23.2811C807.682 23.2677 807.646 23.2457 807.617 23.2166C807.588 23.1875 807.565 23.1522 807.552 23.1133C807.538 23.0744 807.534 23.0329 807.539 22.9921V19.2377C807.562 18.7765 807.417 18.3224 807.13 17.9585C807.002 17.8057 806.842 17.6826 806.66 17.5981C806.479 17.5137 806.281 17.4698 806.08 17.4697C805.866 17.4612 805.653 17.4975 805.454 17.5764C805.255 17.6552 805.075 17.7748 804.926 17.9273C804.626 18.2647 804.471 18.7054 804.496 19.1545V22.9921C804.501 23.0329 804.496 23.0744 804.483 23.1133C804.469 23.1522 804.447 23.1875 804.418 23.2166C804.388 23.2457 804.353 23.2677 804.314 23.2811C804.274 23.2945 804.233 23.2988 804.191 23.2937H802.481C802.281 23.2937 802.187 23.1897 802.187 22.9921V18.0937C802.199 18.0103 802.192 17.9252 802.165 17.8452C802.138 17.7651 802.093 17.6924 802.033 17.6328C801.973 17.5732 801.899 17.5283 801.818 17.5018C801.738 17.4753 801.652 17.4679 801.568 17.4801H801.221C800.99 17.4801 800.875 17.3969 800.875 17.2305V16.0033C800.87 15.9274 800.891 15.8519 800.934 15.7894C800.978 15.727 801.043 15.6813 801.116 15.6601C801.479 15.5294 801.864 15.4659 802.25 15.4729C802.621 15.4416 802.993 15.5149 803.323 15.6842C803.654 15.8535 803.929 16.1119 804.118 16.4297C804.472 16.0972 804.891 15.8406 805.35 15.6759C805.809 15.5113 806.297 15.4422 806.784 15.4729C807.256 15.4501 807.728 15.5379 808.16 15.7295C808.592 15.921 808.973 16.2108 809.271 16.5753C809.618 16.2013 810.045 15.9083 810.52 15.7177C810.996 15.527 811.508 15.4434 812.02 15.4729C812.478 15.4517 812.936 15.5248 813.364 15.6877C813.792 15.8506 814.182 16.0997 814.508 16.4193C814.827 16.7526 815.074 17.1467 815.234 17.5775C815.395 18.0084 815.465 18.467 815.442 18.9257V20.9329C815.442 21.3281 815.62 21.5257 815.956 21.5257C816.119 21.5332 816.281 21.5157 816.439 21.4737C816.656 21.4737 816.771 21.5569 816.785 21.7233L816.879 23.0233Z" fill="#1D2130"/>
<path d="M693.818 14.3705C694.593 11.2866 696.386 8.54801 698.913 6.59084C701.439 4.63367 704.554 3.57043 707.761 3.57043C710.968 3.57043 714.082 4.63367 716.609 6.59084C719.135 8.54801 720.929 11.2866 721.703 14.3705H720.444C718.319 14.3395 716.238 14.9687 714.493 16.1697C714.392 16.242 714.287 16.308 714.178 16.3674H714.031C713.922 16.308 713.817 16.242 713.716 16.1697C711.956 14.9965 709.882 14.3699 707.761 14.3699C705.639 14.3699 703.566 14.9965 701.805 16.1697C701.704 16.242 701.599 16.308 701.49 16.3674H701.343C701.234 16.308 701.129 16.242 701.028 16.1697C699.283 14.9687 697.202 14.3395 695.078 14.3705H693.818ZM718.177 20.8914C718.823 20.3924 719.624 20.1314 720.444 20.153H722.133V16.8145H720.444C719.001 16.7972 717.591 17.2423 716.424 18.0833C715.767 18.5631 714.973 18.8219 714.157 18.8219C713.341 18.8219 712.547 18.5631 711.89 18.0833C710.694 17.258 709.271 16.8155 707.813 16.8155C706.355 16.8155 704.932 17.258 703.736 18.0833C703.079 18.5631 702.285 18.8219 701.469 18.8219C700.653 18.8219 699.859 18.5631 699.202 18.0833C698.021 17.2315 696.591 16.7859 695.13 16.8145H693.388V20.153H695.078C695.897 20.1314 696.698 20.3924 697.345 20.8914C698.539 21.7173 699.96 22.1601 701.417 22.1601C702.873 22.1601 704.294 21.7173 705.489 20.8914C706.136 20.394 706.937 20.1331 707.755 20.153C708.575 20.1297 709.377 20.3909 710.022 20.8914C711.219 21.7167 712.642 22.1592 714.1 22.1592C715.557 22.1592 716.98 21.7167 718.177 20.8914ZM718.177 26.861C718.823 26.362 719.624 26.101 720.444 26.1226H722.133V22.7842H720.444C719.001 22.7669 717.591 23.2119 716.424 24.053C715.767 24.5327 714.973 24.7915 714.157 24.7915C713.341 24.7915 712.547 24.5327 711.89 24.053C710.694 23.2276 709.271 22.7851 707.813 22.7851C706.355 22.7851 704.932 23.2276 703.736 24.053C703.079 24.5327 702.285 24.7915 701.469 24.7915C700.653 24.7915 699.859 24.5327 699.202 24.053C698.021 23.2011 696.591 22.7555 695.13 22.7842H693.388V26.1226H695.078C695.897 26.101 696.698 26.362 697.345 26.861C698.539 27.6869 699.96 28.1297 701.417 28.1297C702.873 28.1297 704.294 27.6869 705.489 26.861C706.136 26.3636 706.937 26.1027 707.755 26.1226C708.575 26.0993 709.377 26.3605 710.022 26.861C711.219 27.6863 712.642 28.1288 714.1 28.1288C715.557 28.1288 716.98 27.6863 718.177 26.861Z" fill="#1D2130"/>
</g>
<g opacity="0.6">
<path d="M951.158 9.82322H954.545V23.4732H951.158V9.82322ZM955.895 18.3387C955.895 14.9577 958.005 12.9312 961.171 12.9312C964.336 12.9312 966.446 14.9577 966.446 18.3387C966.446 21.7197 964.41 23.7672 961.171 23.7672C957.932 23.7672 955.895 21.7932 955.895 18.3387ZM963.091 18.3387C963.091 16.4802 962.363 15.3882 961.202 15.3882C960.042 15.3882 959.324 16.4382 959.324 18.3387C959.324 20.2392 960.042 21.2787 961.202 21.2787C962.363 21.2787 963.112 20.2392 963.112 18.3492L963.091 18.3387ZM967.797 24.1767H971.068C971.217 24.5272 971.477 24.8195 971.808 25.0091C972.14 25.1987 972.524 25.2751 972.904 25.2267C974.201 25.2267 974.877 24.5337 974.877 23.5047V21.6147H974.887C974.608 22.2032 974.156 22.6937 973.591 23.0217C973.026 23.3497 972.374 23.4998 971.722 23.4522C969.242 23.4522 967.596 21.5727 967.596 18.3387C967.596 15.1047 969.169 13.0887 971.817 13.0887C972.486 13.0531 973.15 13.2248 973.717 13.5802C974.283 13.9357 974.726 14.4573 974.982 15.0732H974.887V13.1727H978.243V23.3997C978.243 25.8672 976.048 27.4107 972.819 27.4107C969.886 27.4002 968.008 26.0667 967.818 24.1872L967.797 24.1767ZM974.887 18.3387C974.887 16.6902 974.128 15.6507 972.925 15.6507C971.722 15.6507 970.983 16.7007 970.983 18.3387C970.983 19.9767 971.711 20.9427 972.925 20.9427C974.138 20.9427 974.887 20.0502 974.887 18.3387ZM979.583 18.3387C979.583 14.9577 981.693 12.9312 984.858 12.9312C988.023 12.9312 990.134 14.9577 990.134 18.3387C990.134 21.7197 988.087 23.7672 984.858 23.7672C981.629 23.7672 979.604 21.7932 979.604 18.3387H979.583ZM986.778 18.3387C986.778 16.4802 986.04 15.3882 984.89 15.3882C983.74 15.3882 983.012 16.4382 983.012 18.3387C983.012 20.2392 983.729 21.2787 984.89 21.2787C986.05 21.2787 986.799 20.2392 986.799 18.3492L986.778 18.3387ZM991.505 10.6842C991.491 10.3409 991.579 10.001 991.76 9.70834C991.941 9.41566 992.206 9.18355 992.521 9.04188C992.835 8.9002 993.185 8.85544 993.526 8.91335C993.866 8.97126 994.181 9.12919 994.431 9.36683C994.68 9.60447 994.852 9.91094 994.925 10.2468C994.998 10.5827 994.969 10.9326 994.84 11.2516C994.712 11.5705 994.49 11.8439 994.204 12.0366C993.918 12.2293 993.581 12.3324 993.236 12.3327C993.015 12.3383 992.795 12.3002 992.59 12.2206C992.384 12.1411 992.196 12.0216 992.037 11.8693C991.878 11.7169 991.751 11.5346 991.663 11.333C991.576 11.1313 991.529 10.9144 991.526 10.6947L991.505 10.6842ZM991.505 13.1622H994.934V23.5152H991.558L991.505 13.1622ZM1007.27 18.3387C1007.27 21.7092 1005.75 23.6622 1003.16 23.6622C1002.5 23.7028 1001.84 23.5404 1001.28 23.1967C1000.71 22.8531 1000.27 22.3449 999.999 21.7407H999.936V26.8437H996.549V13.1937H999.915V15.0417H999.978C1000.24 14.4256 1000.68 13.9035 1001.24 13.5465C1001.81 13.1895 1002.47 13.015 1003.14 13.0467C1005.8 13.0257 1007.33 14.9682 1007.33 18.3492L1007.27 18.3387ZM1003.82 18.3387C1003.82 16.7007 1003.05 15.6402 1001.86 15.6402C1000.66 15.6402 999.915 16.6902 999.904 18.3387C999.893 19.9872 1000.66 21.0267 1001.86 21.0267C1003.05 21.0267 1003.88 20.0502 1003.88 18.3492L1003.82 18.3387ZM1013.05 12.9207C1015.89 12.9207 1017.65 14.2542 1017.67 16.3962H1014.58C1014.58 15.6507 1013.96 15.1887 1013.03 15.1887C1012.1 15.1887 1011.66 15.5457 1011.66 16.0812C1011.66 16.6167 1012.05 16.7847 1012.83 16.9422L1015 17.3832C1017.11 17.8242 1017.96 18.6642 1017.96 20.2287C1017.96 22.3287 1016.01 23.7567 1013.1 23.7567C1010.2 23.7567 1008.31 22.3707 1008.18 20.2602H1011.46C1011.55 21.0267 1012.16 21.4782 1013.16 21.4782C1014.15 21.4782 1014.61 21.1632 1014.61 20.6067C1014.61 20.0502 1014.3 19.9557 1013.48 19.7877L1011.52 19.3782C1009.48 18.9477 1008.42 17.8872 1008.42 16.3017C1008.48 14.2437 1010.25 12.9312 1013.11 12.9312L1013.05 12.9207ZM1029.3 23.5047H1026.02V21.5622H1025.95C1025.77 22.2101 1025.37 22.7764 1024.82 23.1677C1024.27 23.559 1023.6 23.7519 1022.93 23.7147C1022.42 23.7312 1021.91 23.6403 1021.44 23.4477C1020.96 23.2552 1020.54 22.9655 1020.19 22.5977C1019.84 22.2298 1019.57 21.7921 1019.4 21.3133C1019.23 20.8344 1019.16 20.3253 1019.2 19.8192V13.1727H1022.59V19.0947C1022.59 20.3127 1023.23 20.9742 1024.29 20.9742C1024.54 20.9724 1024.78 20.9177 1025 20.8138C1025.23 20.71 1025.43 20.5595 1025.59 20.3724C1025.75 20.1852 1025.87 19.9659 1025.94 19.7292C1026.01 19.4925 1026.02 19.2439 1025.99 19.0002V13.1727H1029.36L1029.3 23.5047ZM1030.93 13.1622H1034.23V15.1572H1034.3C1034.48 14.5181 1034.87 13.9571 1035.41 13.5619C1035.95 13.1667 1036.6 12.9597 1037.27 12.9732C1037.94 12.9153 1038.6 13.108 1039.14 13.5139C1039.67 13.9197 1040.04 14.5094 1040.16 15.1677H1040.3C1040.52 14.5059 1040.94 13.932 1041.51 13.5352C1042.08 13.1383 1042.77 12.9407 1043.47 12.9732C1043.93 12.9557 1044.39 13.0357 1044.82 13.208C1045.25 13.3802 1045.64 13.6409 1045.96 13.973C1046.29 14.305 1046.53 14.701 1046.69 15.1348C1046.85 15.5687 1046.91 16.0307 1046.88 16.4907V23.5152H1043.47V17.3517C1043.47 16.3017 1042.97 15.7137 1042.01 15.7137C1041.8 15.7102 1041.59 15.7526 1041.39 15.838C1041.2 15.9233 1041.03 16.0496 1040.88 16.2082C1040.74 16.3668 1040.64 16.5539 1040.58 16.7567C1040.51 16.9595 1040.5 17.1732 1040.53 17.3832V23.5152H1037.3V17.3202C1037.3 16.2702 1036.78 15.7137 1035.85 15.7137C1035.64 15.712 1035.42 15.7561 1035.23 15.8431C1035.03 15.9301 1034.85 16.058 1034.71 16.2181C1034.57 16.3782 1034.46 16.5669 1034.4 16.7714C1034.33 16.976 1034.32 17.1918 1034.34 17.4042V23.5152H1030.96L1030.93 13.1622Z" fill="#1D2130"/>
<path d="M944.458 10.7158C944.458 8.62599 943.824 6.58486 942.638 4.85977C941.453 3.13468 939.772 1.80607 937.815 1.04796C935.858 0.289858 933.716 0.137606 931.671 0.611147C929.626 1.08469 927.772 2.16194 926.352 3.70181H913.184V31.3588H940.986V18.4333C942.078 17.462 942.951 16.2727 943.549 14.9429C944.147 13.6131 944.457 12.1727 944.458 10.7158ZM939.108 10.7158C939.11 11.7172 938.814 12.6968 938.256 13.5304C937.699 14.3641 936.905 15.0144 935.976 15.399C935.047 15.7837 934.024 15.8854 933.037 15.6913C932.05 15.4973 931.143 15.0161 930.43 14.3087C929.718 13.6013 929.233 12.6996 929.035 11.7175C928.838 10.7355 928.938 9.71737 929.323 8.79199C929.708 7.8666 930.359 7.07555 931.196 6.51898C932.033 5.9624 933.016 5.66532 934.023 5.66531C935.37 5.66531 936.662 6.19708 937.615 7.14393C938.568 8.09078 939.105 9.37537 939.108 10.7158ZM935.637 26.0353H918.534V9.02531H923.746C923.645 9.58335 923.592 10.1489 923.588 10.7158C923.59 13.4691 924.691 16.1088 926.647 18.0557C928.603 20.0026 931.256 21.0975 934.023 21.1003C934.563 21.0975 935.103 21.0518 935.637 20.9638V26.0353Z" fill="#1D2130"/>
</g>
<g opacity="0.6">
<path d="M1176.18 7.63501H1179.34V22.952H1176.18V7.63501Z" fill="#1D2130"/>
<path d="M1181.11 17.705C1181.11 16.603 1181.44 15.5258 1182.05 14.61C1182.66 13.6941 1183.53 12.9809 1184.54 12.5606C1185.56 12.1404 1186.67 12.032 1187.75 12.2494C1188.82 12.4667 1189.81 12.9999 1190.58 13.7813C1191.36 14.5628 1191.88 15.5573 1192.09 16.6389C1192.3 17.7205 1192.19 18.8405 1191.76 19.8568C1191.34 20.8731 1190.62 21.74 1189.71 22.3476C1188.79 22.9553 1187.72 23.2763 1186.62 23.27C1185.89 23.2757 1185.17 23.1354 1184.5 22.8574C1183.83 22.5793 1183.22 22.1691 1182.7 21.6508C1182.19 21.1325 1181.79 20.5165 1181.51 19.8389C1181.24 19.1613 1181.1 18.4359 1181.11 17.705ZM1189.05 17.705C1189.04 17.2299 1188.89 16.769 1188.61 16.3801C1188.34 15.9911 1187.96 15.6912 1187.52 15.518C1187.08 15.3448 1186.6 15.3059 1186.14 15.4062C1185.67 15.5066 1185.25 15.7416 1184.92 16.082C1184.59 16.4224 1184.37 16.853 1184.28 17.32C1184.19 17.787 1184.24 18.2696 1184.43 18.7076C1184.61 19.1455 1184.92 19.5192 1185.31 19.7821C1185.71 20.0449 1186.17 20.1852 1186.64 20.1854C1186.97 20.1917 1187.29 20.1312 1187.58 20.0077C1187.88 19.8841 1188.15 19.7002 1188.37 19.4674C1188.6 19.2346 1188.77 18.958 1188.88 18.6547C1189 18.3515 1189.05 18.0282 1189.03 17.705H1189.05Z" fill="#1D2130"/>
<path d="M1204.65 12.458V22.4326C1204.65 25.9518 1201.91 27.4464 1199.14 27.4464C1198.16 27.5271 1197.18 27.3317 1196.3 26.8823C1195.43 26.4328 1194.69 25.7471 1194.19 24.9024L1196.86 23.3548C1197.07 23.793 1197.42 24.1545 1197.84 24.3912C1198.27 24.6279 1198.76 24.7286 1199.24 24.6798C1199.55 24.718 1199.86 24.6872 1200.16 24.5896C1200.45 24.4921 1200.72 24.3302 1200.95 24.1154C1201.18 23.9007 1201.35 23.6385 1201.46 23.3476C1201.58 23.0567 1201.63 22.7442 1201.61 22.4326V21.468C1201.24 21.9167 1200.77 22.2729 1200.24 22.5084C1199.71 22.7439 1199.13 22.8523 1198.56 22.8248C1197.16 22.8248 1195.81 22.2664 1194.83 21.2725C1193.84 20.2785 1193.28 18.9305 1193.28 17.5248C1193.28 16.1192 1193.84 14.7711 1194.83 13.7771C1195.81 12.7832 1197.16 12.2248 1198.56 12.2248C1199.13 12.1973 1199.71 12.3057 1200.24 12.5412C1200.77 12.7767 1201.24 13.1329 1201.61 13.5816V12.5216L1204.65 12.458ZM1201.61 17.493C1201.63 16.9859 1201.5 16.484 1201.23 16.0519C1200.97 15.6199 1200.58 15.2774 1200.12 15.0685C1199.66 14.8596 1199.14 14.7938 1198.65 14.8797C1198.15 14.9655 1197.69 15.1991 1197.32 15.5503C1196.96 15.9015 1196.71 16.3542 1196.6 16.8504C1196.49 17.3466 1196.54 17.8634 1196.72 18.3345C1196.91 18.8055 1197.24 19.2093 1197.66 19.4938C1198.07 19.7783 1198.57 19.9306 1199.07 19.931C1199.4 19.9549 1199.73 19.909 1200.04 19.7963C1200.36 19.6837 1200.64 19.5068 1200.88 19.277C1201.12 19.0473 1201.3 18.7698 1201.43 18.4625C1201.56 18.1552 1201.61 17.8249 1201.61 17.493Z" fill="#1D2130"/>
<path d="M1206.44 17.705C1206.44 16.6039 1206.76 15.5275 1207.37 14.6121C1207.98 13.6968 1208.85 12.9835 1209.86 12.5626C1210.87 12.1417 1211.99 12.0321 1213.06 12.2477C1214.14 12.4633 1215.12 12.9944 1215.9 13.7737C1216.67 14.5531 1217.2 15.5456 1217.41 16.6258C1217.62 17.706 1217.51 18.8253 1217.09 19.842C1216.67 20.8587 1215.96 21.7271 1215.05 22.3373C1214.13 22.9475 1213.06 23.2721 1211.97 23.27C1211.24 23.2771 1210.51 23.1379 1209.84 22.8606C1209.16 22.5834 1208.55 22.1735 1208.04 21.6552C1207.52 21.1369 1207.12 20.5205 1206.84 19.8422C1206.57 19.1639 1206.43 18.4373 1206.44 17.705ZM1214.37 17.705C1214.36 17.2295 1214.21 16.7682 1213.94 16.379C1213.66 15.9898 1213.28 15.69 1212.84 15.5171C1212.4 15.3442 1211.92 15.3059 1211.46 15.4071C1210.99 15.5083 1210.57 15.7444 1210.24 16.0858C1209.91 16.4273 1209.69 16.8589 1209.6 17.3265C1209.52 17.7942 1209.57 18.2772 1209.75 18.7149C1209.94 19.1526 1210.25 19.5257 1210.64 19.7872C1211.04 20.0488 1211.5 20.1873 1211.98 20.1854C1212.3 20.1917 1212.62 20.1312 1212.92 20.0077C1213.21 19.8841 1213.48 19.7002 1213.71 19.4674C1213.93 19.2346 1214.1 18.958 1214.22 18.6547C1214.33 18.3515 1214.38 18.0282 1214.36 17.705H1214.37Z" fill="#1D2130"/>
<path d="M1218.96 9.64896C1218.96 9.27578 1219.07 8.91099 1219.28 8.6007C1219.48 8.29042 1219.78 8.04859 1220.12 7.90578C1220.46 7.76297 1220.84 7.72561 1221.21 7.79841C1221.57 7.87121 1221.91 8.05091 1222.17 8.31479C1222.43 8.57866 1222.61 8.91486 1222.68 9.28086C1222.75 9.64686 1222.72 10.0262 1222.57 10.371C1222.43 10.7158 1222.19 11.0104 1221.88 11.2178C1221.57 11.4251 1221.21 11.5358 1220.84 11.5358C1220.34 11.5302 1219.87 11.3297 1219.52 10.977C1219.17 10.6244 1218.97 10.1477 1218.96 9.64896ZM1219.27 12.458H1222.43V22.952H1219.27V12.458Z" fill="#1D2130"/>
<path d="M1235.98 17.705C1236.02 18.4029 1235.91 19.101 1235.68 19.7591C1235.45 20.4171 1235.08 21.0222 1234.62 21.5394C1234.15 22.0566 1233.58 22.4758 1232.95 22.7728C1232.32 23.0698 1231.64 23.2388 1230.95 23.27C1230.36 23.3094 1229.77 23.2146 1229.22 22.9925C1228.67 22.7704 1228.18 22.4268 1227.78 21.9874V27.1708H1224.62V12.458H1227.78V13.4438C1228.18 13.0057 1228.67 12.6637 1229.22 12.4435C1229.77 12.2232 1230.36 12.1303 1230.95 12.1718C1231.64 12.2031 1232.32 12.3711 1232.95 12.6661C1233.57 12.9611 1234.14 13.3774 1234.6 13.8912C1235.07 14.4051 1235.43 15.0063 1235.67 15.6607C1235.91 16.3151 1236.01 17.0097 1235.98 17.705ZM1232.82 17.705C1232.8 17.2127 1232.65 16.7351 1232.36 16.3319C1232.08 15.9287 1231.69 15.618 1231.23 15.4387C1230.78 15.2594 1230.28 15.2195 1229.8 15.324C1229.32 15.4284 1228.88 15.6726 1228.54 16.0259C1228.2 16.3792 1227.97 16.8259 1227.88 17.3101C1227.79 17.7942 1227.84 18.2942 1228.03 18.7474C1228.23 19.2006 1228.55 19.5869 1228.96 19.8578C1229.37 20.1287 1229.85 20.2722 1230.34 20.2702C1230.67 20.2845 1231.01 20.2274 1231.32 20.1025C1231.63 19.9777 1231.91 19.7879 1232.15 19.5457C1232.38 19.3035 1232.56 19.0143 1232.68 18.6971C1232.79 18.3799 1232.84 18.0418 1232.82 17.705Z" fill="#1D2130"/>
<path d="M1245.61 19.8038C1245.61 22.2206 1243.5 23.2488 1241.27 23.2488C1240.35 23.3313 1239.44 23.137 1238.64 22.6911C1237.84 22.2451 1237.19 21.568 1236.77 20.7472L1239.49 19.1996C1239.6 19.5778 1239.84 19.9074 1240.16 20.1331C1240.48 20.3589 1240.87 20.4671 1241.26 20.4398C1242.01 20.4398 1242.39 20.2066 1242.39 19.7826C1242.39 18.6272 1237.25 19.242 1237.25 15.6062C1237.25 13.3166 1239.17 12.1718 1241.34 12.1718C1242.17 12.1346 1242.99 12.3229 1243.72 12.7167C1244.44 13.1105 1245.05 13.6951 1245.48 14.4084L1242.75 15.85C1242.63 15.5765 1242.44 15.3439 1242.19 15.1803C1241.94 15.0166 1241.65 14.9289 1241.35 14.9278C1240.8 14.9278 1240.48 15.1398 1240.48 15.5108C1240.48 16.7192 1245.61 15.9242 1245.61 19.8038Z" fill="#1D2130"/>
<path d="M1257.08 12.458V22.952H1253.92V21.9662C1253.56 22.4026 1253.1 22.7479 1252.58 22.9744C1252.07 23.2009 1251.51 23.3022 1250.94 23.27C1248.83 23.27 1247.03 21.7542 1247.03 18.924V12.458H1250.19V18.447C1250.17 18.6974 1250.2 18.9503 1250.28 19.1881C1250.36 19.4259 1250.49 19.643 1250.67 19.8244C1250.84 20.0058 1251.05 20.1472 1251.28 20.2388C1251.52 20.3304 1251.77 20.3701 1252.02 20.355C1253.16 20.355 1253.96 19.6766 1253.96 18.235V12.458H1257.08Z" fill="#1D2130"/>
<path d="M1275.02 16.5072V22.952H1271.85V16.7828C1271.85 15.7228 1271.36 15.0656 1270.36 15.0656C1269.35 15.0656 1268.72 15.797 1268.72 17.0372V22.952H1265.56V16.7828C1265.56 15.7228 1265.06 15.0656 1264.06 15.0656C1263.05 15.0656 1262.42 15.797 1262.42 17.0372V22.952H1259.26V12.458H1262.42V13.4226C1262.75 12.9964 1263.18 12.6589 1263.67 12.4406C1264.16 12.2222 1264.69 12.1298 1265.23 12.1718C1265.76 12.1437 1266.3 12.256 1266.78 12.4976C1267.26 12.7392 1267.66 13.1018 1267.96 13.5498C1268.31 13.0817 1268.77 12.7098 1269.3 12.4689C1269.83 12.2279 1270.41 12.1257 1270.99 12.1718C1273.46 12.1718 1275.02 13.889 1275.02 16.5072Z" fill="#1D2130"/>
<path d="M1157.32 4.87902V0.374023H1143.18V31.326H1157.32V26.821C1154.43 26.821 1151.65 25.6651 1149.6 23.6077C1147.55 21.5502 1146.4 18.7597 1146.4 15.85C1146.4 12.9403 1147.55 10.1498 1149.6 8.09235C1151.65 6.03489 1154.43 4.87902 1157.32 4.87902Z" fill="#1D2130"/>
<path d="M1157.32 4.87902V26.821C1160.22 26.821 1163 25.6652 1165.04 23.6077C1167.09 21.5502 1168.24 18.7597 1168.24 15.85C1168.24 12.9403 1167.09 10.1498 1165.04 8.09236C1163 6.03489 1160.22 4.87902 1157.32 4.87902Z" fill="#1D2130"/>
<path d="M1277.68 12.3944C1278.96 12.3944 1280 11.3503 1280 10.0624C1280 8.77447 1278.96 7.73039 1277.68 7.73039C1276.4 7.73039 1275.36 8.77447 1275.36 10.0624C1275.36 11.3503 1276.4 12.3944 1277.68 12.3944Z" fill="#1D2130"/>
</g>
</svg>
